<svg width="27" height="24" viewBox="0 0 27 24" fill="none" xmlns="http://www.w3.org/2000/svg">
<path fill-rule="evenodd" clip-rule="evenodd" d="M0 12C2.46313e-05 17.7198 1.875 21.0909 5.30355 24C5.89286 23.7143 6.48214 23.1208 7.07141 22.2857C7.89329 21.1209 8.25 20.2857 8.25 18.8571V12L8.25 5.14286C8.25 3.71428 7.89329 2.8791 7.07141 1.71428C6.48214 0.879154 5.89286 0.285713 5.30355 0C1.875 2.90909 2.46313e-05 6.28021 0 12Z" fill="#464EB8"/>
<path fill-rule="evenodd" clip-rule="evenodd" d="M27 12C27 17.7198 25.125 21.0909 21.6964 24C21.1071 23.7143 20.5179 23.1208 19.9286 22.2857C19.1067 21.1209 18.75 20.2857 18.75 18.8571V12V5.14286C18.75 3.71428 19.1067 2.8791 19.9286 1.71428C20.5179 0.879154 21.1071 0.285713 21.6964 0C25.125 2.90909 27 6.28021 27 12Z" fill="#A3A7DC"/>
<rect x="10.5" y="1.5" width="6" height="21" rx="3" fill="#7B83EB"/>
</svg>
