<svg width="137" height="27" viewBox="0 0 137 27" fill="none" xmlns="http://www.w3.org/2000/svg">
<path fill-rule="evenodd" clip-rule="evenodd" d="M0 14C2.46313e-05 19.7198 1.875 23.0909 5.30355 26C5.89286 25.7143 6.48214 25.1208 7.07141 24.2857C7.89329 23.1209 8.25 22.2857 8.25 20.8571V14L8.25 7.14286C8.25 5.71428 7.89329 4.8791 7.07141 3.71428C6.48214 2.87915 5.89286 2.28571 5.30355 2C1.875 4.90909 2.46313e-05 8.28021 0 14Z" fill="#464EB8"/>
<path fill-rule="evenodd" clip-rule="evenodd" d="M27 14C27 19.7198 25.125 23.0909 21.6964 26C21.1071 25.7143 20.5179 25.1208 19.9286 24.2857C19.1067 23.1209 18.75 22.2857 18.75 20.8571V14V7.14286C18.75 5.71428 19.1067 4.8791 19.9286 3.71428C20.5179 2.87915 21.1071 2.28571 21.6964 2C25.125 4.90909 27 8.28021 27 14Z" fill="#A3A7DC"/>
<rect x="10.5" y="3.5" width="6" height="21" rx="3" fill="#7B83EB"/>
<path d="M46.714 17.39V20H45.148C44.032 20 43.162 19.73 42.538 19.19C41.914 18.638 41.602 17.744 41.602 16.508V12.512H40.378V9.956H41.602V7.508H44.68V9.956H46.696V12.512H44.68V16.544C44.68 16.844 44.752 17.06 44.896 17.192C45.04 17.324 45.28 17.39 45.616 17.39H46.714ZM47.8165 14.978C47.8165 13.934 48.0265 13.022 48.4465 12.242C48.8785 11.462 49.4725 10.862 50.2285 10.442C50.9965 10.022 51.8725 9.812 52.8565 9.812C54.1165 9.812 55.1665 10.142 56.0065 10.802C56.8585 11.462 57.4165 12.392 57.6805 13.592H54.4045C54.1285 12.824 53.5945 12.44 52.8025 12.44C52.2385 12.44 51.7885 12.662 51.4525 13.106C51.1165 13.538 50.9485 14.162 50.9485 14.978C50.9485 15.794 51.1165 16.424 51.4525 16.868C51.7885 17.3 52.2385 17.516 52.8025 17.516C53.5945 17.516 54.1285 17.132 54.4045 16.364H57.6805C57.4165 17.54 56.8585 18.464 56.0065 19.136C55.1545 19.808 54.1045 20.144 52.8565 20.144C51.8725 20.144 50.9965 19.934 50.2285 19.514C49.4725 19.094 48.8785 18.494 48.4465 17.714C48.0265 16.934 47.8165 16.022 47.8165 14.978ZM62.4049 11.378C62.7049 10.91 63.1189 10.532 63.6469 10.244C64.1749 9.956 64.7929 9.812 65.5009 9.812C66.3289 9.812 67.0789 10.022 67.7509 10.442C68.4229 10.862 68.9509 11.462 69.3349 12.242C69.7309 13.022 69.9289 13.928 69.9289 14.96C69.9289 15.992 69.7309 16.904 69.3349 17.696C68.9509 18.476 68.4229 19.082 67.7509 19.514C67.0789 19.934 66.3289 20.144 65.5009 20.144C64.8049 20.144 64.1869 20 63.6469 19.712C63.1189 19.424 62.7049 19.052 62.4049 18.596V24.788H59.3269V9.956H62.4049V11.378ZM66.7969 14.96C66.7969 14.192 66.5809 13.592 66.1489 13.16C65.7289 12.716 65.2069 12.494 64.5829 12.494C63.9709 12.494 63.4489 12.716 63.0169 13.16C62.5969 13.604 62.3869 14.21 62.3869 14.978C62.3869 15.746 62.5969 16.352 63.0169 16.796C63.4489 17.24 63.9709 17.462 64.5829 17.462C65.1949 17.462 65.7169 17.24 66.1489 16.796C66.5809 16.34 66.7969 15.728 66.7969 14.96ZM76.1157 20.144C75.1317 20.144 74.2437 19.934 73.4517 19.514C72.6717 19.094 72.0537 18.494 71.5977 17.714C71.1537 16.934 70.9317 16.022 70.9317 14.978C70.9317 13.946 71.1597 13.04 71.6157 12.26C72.0717 11.468 72.6957 10.862 73.4877 10.442C74.2797 10.022 75.1677 9.812 76.1517 9.812C77.1357 9.812 78.0237 10.022 78.8157 10.442C79.6077 10.862 80.2317 11.468 80.6877 12.26C81.1437 13.04 81.3717 13.946 81.3717 14.978C81.3717 16.01 81.1377 16.922 80.6697 17.714C80.2137 18.494 79.5837 19.094 78.7797 19.514C77.9877 19.934 77.0997 20.144 76.1157 20.144ZM76.1157 17.48C76.7037 17.48 77.2017 17.264 77.6097 16.832C78.0297 16.4 78.2397 15.782 78.2397 14.978C78.2397 14.174 78.0357 13.556 77.6277 13.124C77.2317 12.692 76.7397 12.476 76.1517 12.476C75.5517 12.476 75.0537 12.692 74.6577 13.124C74.2617 13.544 74.0637 14.162 74.0637 14.978C74.0637 15.782 74.2557 16.4 74.6397 16.832C75.0357 17.264 75.5277 17.48 76.1157 17.48ZM86.0827 11.63C86.4427 11.078 86.8927 10.646 87.4327 10.334C87.9727 10.01 88.5727 9.848 89.2327 9.848V13.106H88.3867C87.6187 13.106 87.0427 13.274 86.6587 13.61C86.2747 13.934 86.0827 14.51 86.0827 15.338V20H83.0047V9.956H86.0827V11.63ZM96.3019 17.39V20H94.7359C93.6199 20 92.7499 19.73 92.1259 19.19C91.5019 18.638 91.1899 17.744 91.1899 16.508V12.512H89.9659V9.956H91.1899V7.508H94.2679V9.956H96.2839V12.512H94.2679V16.544C94.2679 16.844 94.3399 17.06 94.4839 17.192C94.6279 17.324 94.8679 17.39 95.2039 17.39H96.3019ZM103.056 12.512H101.4V20H98.3224V12.512H97.2064V9.956H98.3224V9.668C98.3224 8.432 98.6764 7.496 99.3844 6.86C100.092 6.212 101.13 5.888 102.498 5.888C102.726 5.888 102.894 5.894 103.002 5.906V8.516C102.414 8.48 102 8.564 101.76 8.768C101.52 8.972 101.4 9.338 101.4 9.866V9.956H103.056V12.512ZM109.075 20.144C108.091 20.144 107.203 19.934 106.411 19.514C105.631 19.094 105.013 18.494 104.557 17.714C104.113 16.934 103.891 16.022 103.891 14.978C103.891 13.946 104.119 13.04 104.575 12.26C105.031 11.468 105.655 10.862 106.447 10.442C107.239 10.022 108.127 9.812 109.111 9.812C110.095 9.812 110.983 10.022 111.775 10.442C112.567 10.862 113.191 11.468 113.647 12.26C114.103 13.04 114.331 13.946 114.331 14.978C114.331 16.01 114.097 16.922 113.629 17.714C113.173 18.494 112.543 19.094 111.739 19.514C110.947 19.934 110.059 20.144 109.075 20.144ZM109.075 17.48C109.663 17.48 110.161 17.264 110.569 16.832C110.989 16.4 111.199 15.782 111.199 14.978C111.199 14.174 110.995 13.556 110.587 13.124C110.191 12.692 109.699 12.476 109.111 12.476C108.511 12.476 108.013 12.692 107.617 13.124C107.221 13.544 107.023 14.162 107.023 14.978C107.023 15.782 107.215 16.4 107.599 16.832C107.995 17.264 108.487 17.48 109.075 17.48ZM119.042 6.68V20H115.964V6.68H119.042ZM122.82 8.912C122.28 8.912 121.836 8.756 121.488 8.444C121.152 8.12 120.984 7.724 120.984 7.256C120.984 6.776 121.152 6.38 121.488 6.068C121.836 5.744 122.28 5.582 122.82 5.582C123.348 5.582 123.78 5.744 124.116 6.068C124.464 6.38 124.638 6.776 124.638 7.256C124.638 7.724 124.464 8.12 124.116 8.444C123.78 8.756 123.348 8.912 122.82 8.912ZM124.35 9.956V20H121.272V9.956H124.35ZM131.153 20.144C130.169 20.144 129.281 19.934 128.489 19.514C127.709 19.094 127.091 18.494 126.635 17.714C126.191 16.934 125.969 16.022 125.969 14.978C125.969 13.946 126.197 13.04 126.653 12.26C127.109 11.468 127.733 10.862 128.525 10.442C129.317 10.022 130.205 9.812 131.189 9.812C132.173 9.812 133.061 10.022 133.853 10.442C134.645 10.862 135.269 11.468 135.725 12.26C136.181 13.04 136.409 13.946 136.409 14.978C136.409 16.01 136.175 16.922 135.707 17.714C135.251 18.494 134.621 19.094 133.817 19.514C133.025 19.934 132.137 20.144 131.153 20.144ZM131.153 17.48C131.741 17.48 132.239 17.264 132.647 16.832C133.067 16.4 133.277 15.782 133.277 14.978C133.277 14.174 133.073 13.556 132.665 13.124C132.269 12.692 131.777 12.476 131.189 12.476C130.589 12.476 130.091 12.692 129.695 13.124C129.299 13.544 129.101 14.162 129.101 14.978C129.101 15.782 129.293 16.4 129.677 16.832C130.073 17.264 130.565 17.48 131.153 17.48Z" fill="#252423"/>
</svg>
